<svg class="icon_cart" xmlns="http://www.w3.org/2000/svg" viewBox="0 0 579 516">
    <g><path d="M0 24C0 10.7 10.7 0 24 0L69.5 0c22 0 41.5 12.8 50.6 32l411 0c26.3 0 45.5 25 38.6 50.4l-41 152.3c-8.5 31.4-37 53.3-69.5 53.3l-288.5 0 5.4 28.5c2.2 11.3 12.1 19.5 23.6 19.5L488 336c13.3 0 24 10.7 24 24s-10.7 24-24 24l-288.3 0c-34.6 0-64.3-24.6-70.7-58.5L77.4 54.5c-.7-3.8-4-6.5-7.9-6.5L24 48C10.7 48 0 37.3 0 24zM128 464a48 48 0 1 1 96 0 48 48 0 1 1 -96 0zm336-48a48 48 0 1 1 0 96 48 48 0 1 1 0-96z"/></g>
    <g><path d="M376.6 84.5c11.3-13.6 9.5-33.8-4.1-45.1s-33.8-9.5-45.1 4.1L192 206 56.6 43.5C45.3 29.9 25.1 28.1 11.5 39.4S-3.9 70.9 7.4 84.5L150.3 256 7.4 427.5c-11.3 13.6-9.5 33.8 4.1 45.1s33.8 9.5 45.1-4.1L192 306 327.4 468.5c11.3 13.6 31.5 15.4 45.1 4.1s15.4-31.5 4.1-45.1L233.7 256 376.6 84.5z"/></g>
</svg>





<svg width="24px" height="24px" viewBox="0 0 24 24" fill="none" xmlns="http://www.w3.org/2000/svg">
    <g>
        <path d="M2 3L2.26491 3.0883C3.58495 3.52832 4.24497 3.74832 4.62248 4.2721C5 4.79587 5 5.49159 5 6.88304V9.5C5 12.3284 5 13.7426 5.87868 14.6213C6.75736 15.5 8.17157 15.5 11 15.5H19" stroke="#1C274C" stroke-width="1.5" stroke-linecap="round"/>
        <path opacity="0.5" d="M7.5 18C8.32843 18 9 18.6716 9 19.5C9 20.3284 8.32843 21 7.5 21C6.67157 21 6 20.3284 6 19.5C6 18.6716 6.67157 18 7.5 18Z" stroke="#1C274C" stroke-width="1.5"/>
        <path opacity="0.5" d="M16.5 18.0001C17.3284 18.0001 18 18.6716 18 19.5001C18 20.3285 17.3284 21.0001 16.5 21.0001C15.6716 21.0001 15 20.3285 15 19.5001C15 18.6716 15.6716 18.0001 16.5 18.0001Z" stroke="#1C274C" stroke-width="1.5"/>
        <path d="M5 6H16.4504C18.5054 6 19.5328 6 19.9775 6.67426C20.4221 7.34853 20.0173 8.29294 19.2078 10.1818L18.7792 11.1818C18.4013 12.0636 18.2123 12.5045 17.8366 12.7523C17.4609 13 16.9812 13 16.0218 13H5" stroke="#1C274C" stroke-width="1.5"/>
    </g>
    <g>
        <path fill-rule="evenodd" clip-rule="evenodd" d="M19.207 6.207a1 1 0 0 0-1.414-1.414L12 10.586 6.207 4.793a1 1 0 0 0-1.414 1.414L10.586 12l-5.793 5.793a1 1 0 1 0 1.414 1.414L12 13.414l5.793 5.793a1 1 0 0 0 1.414-1.414L13.414 12l5.793-5.793z" fill="#000000"/>
    </g>    
</svg>